<svg width="32" height="32" viewBox="0 0 32 32" xmlns="http://www.w3.org/2000/svg">
  <circle cx="16" cy="16" r="14" fill="#4F46E5" stroke="#1E40AF" stroke-width="2"/>
  <path d="M12 10 L13 13 L16 12 L14 15 L17 16 L14 17 L16 20 L13 19 L12 22 L11 19 L8 20 L10 17 L7 16 L10 15 L8 12 L11 13 Z" fill="#FFD700"/>
  <path d="M20 10 L21 13 L24 12 L22 15 L25 16 L22 17 L24 20 L21 19 L20 22 L19 19 L16 20 L18 17 L15 16 L18 15 L16 12 L19 13 Z" fill="#FFD700"/>
  <path d="M10 20 Q16 24 22 20" stroke="white" stroke-width="2" fill="none" stroke-linecap="round"/>
</svg>